<svg xmlns="http://www.w3.org/2000/svg" width="805" height="600"><rect width="805" height="600" x="0" y="0" fill="#FFFFFF" id="background"/><g transform="translate(10,10)" id="viz"><g id="arcs"><path d="M14.002355481424198,290A20.084454859995883,20.084454859995883 0,0,1 54.17126520141596,290" fill="none" stroke="gray" stroke-width="10.721649484536083" opacity="0.5"/><path d="M134.15923416363586,290A62.0820264423202,62.0820264423202 0,0,1 258.32328704827626,290" fill="none" stroke="gray" stroke-width="5.77319587628866" opacity="0.5"/><path d="M134.15923416363586,290A19.67740337105569,19.67740337105569 0,0,1 173.51404090574724,290" fill="none" stroke="gray" stroke-width="6.701030927835052" opacity="0.5"/><path d="M134.15923416363586,290A37.93125083077091,37.93125083077091 0,0,1 210.02173582517767,290" fill="none" stroke="gray" stroke-width="11.54639175257732" opacity="0.5"/><path d="M366.8706045364592,290A16.91180445993291,16.91180445993291 0,0,1 400.69421345632503,290" fill="none" stroke="gray" stroke-width="6.288659793814433" opacity="0.5"/><path d="M434.74114480478835,290A24.65825546088675,24.65825546088675 0,0,1 484.05765572656185,290" fill="none" stroke="gray" stroke-width="6.597938144329897" opacity="0.5"/><path d="M537.9339874983351,290A26.938165885886633,26.938165885886633 0,0,1 484.05765572656185,290" fill="none" stroke="gray" stroke-width="7.11340206185567" opacity="0.5"/><path d="M537.9339874983351,290A24.14990884637291,24.14990884637291 0,0,1 586.2338051910809,290" fill="none" stroke="gray" stroke-width="7.422680412371134" opacity="0.5"/><path d="M699.5431683379506,290A19.67138898276977,19.67138898276977 0,0,1 738.8859463034902,290" fill="none" stroke="gray" stroke-width="10.412371134020619" opacity="0.5"/><path d="M699.5431683379506,290A36.63216903080365,36.63216903080365 0,0,1 772.807506399558,290" fill="none" stroke="gray" stroke-width="7.731958762886597" opacity="0.5"/><path d="M484.05765572656185,290A73.54653704602549,73.54653704602549 0,0,1 631.1507298186128,290" fill="none" stroke="gray" stroke-width="8.350515463917526" opacity="0.5"/><path d="M484.05765572656185,290A51.08807473225954,51.08807473225954 0,0,1 586.2338051910809,290" fill="none" stroke="gray" stroke-width="30" opacity="0.5"/><path d="M484.05765572656185,290A89.3893063241494,89.3893063241494 0,0,1 662.8362683748607,290" fill="none" stroke="gray" stroke-width="6.288659793814433" opacity="0.5"/><path d="M302.09927721058045,290A21.8879950811521,21.8879950811521 0,0,1 258.32328704827626,290" fill="none" stroke="gray" stroke-width="8.350515463917526" opacity="0.5"/><path d="M93.31547100679242,290A19.57210290268823,19.57210290268823 0,0,1 54.17126520141596,290" fill="none" stroke="gray" stroke-width="8.969072164948454" opacity="0.5"/><path d="M258.32328704827626,290A24.150775611549292,24.150775611549292 0,0,1 210.02173582517767,290" fill="none" stroke="gray" stroke-width="5.463917525773196" opacity="0.5"/><path d="M258.32328704827626,290A38.430889465967624,38.430889465967624 0,0,1 335.1850659802115,290" fill="none" stroke="gray" stroke-width="8.350515463917526" opacity="0.5"/><path d="M258.32328704827626,290A71.18546320402439,71.18546320402439 0,0,1 400.69421345632503,290" fill="none" stroke="gray" stroke-width="5.77319587628866" opacity="0.5"/></g><g id="nodes"><g><circle cx="14.002355481424198" cy="290" r="14.002355481424198"/><text transform="translate(14.002355481424198,309.0023554814242) rotate(-90)" alignment-baseline="middle" font-family="Helvetica, Arial, sans-serif" font-size="12" text-anchor="end">Arya-Stark</text></g><g><circle cx="54.17126520141596" cy="290" r="18.265465595080116"/><text transform="translate(54.17126520141596,313.2654655950801) rotate(-90)" alignment-baseline="middle" font-family="Helvetica, Arial, sans-serif" font-size="12" text-anchor="end">Sansa-Stark</text></g><g><circle cx="93.31547100679242" cy="290" r="12.97765156680888"/><text transform="translate(93.31547100679242,307.9776515668089) rotate(-90)" alignment-baseline="middle" font-family="Helvetica, Arial, sans-serif" font-size="12" text-anchor="end">Joffrey-Baratheon</text></g><g><circle cx="134.15923416363586" cy="290" r="19.96502294654712"/><text transform="translate(134.15923416363586,314.9650229465471) rotate(-90)" alignment-baseline="middle" font-family="Helvetica, Arial, sans-serif" font-size="12" text-anchor="end">Bran-Stark</text></g><g><circle cx="173.51404090574724" cy="290" r="11.488695152076808"/><text transform="translate(173.51404090574724,306.4886951520768) rotate(-90)" alignment-baseline="middle" font-family="Helvetica, Arial, sans-serif" font-size="12" text-anchor="end">Luwin</text></g><g><circle cx="210.02173582517767" cy="290" r="17.117911123866172"/><text transform="translate(210.02173582517767,312.1179111238662) rotate(-90)" alignment-baseline="middle" font-family="Helvetica, Arial, sans-serif" font-size="12" text-anchor="end">Robb-Stark</text></g><g><circle cx="258.32328704827626" cy="290" r="23.28255145574494"/><text transform="translate(258.32328704827626,318.28255145574497) rotate(-90)" alignment-baseline="middle" font-family="Helvetica, Arial, sans-serif" font-size="12" text-anchor="end">Jon-Snow</text></g><g><circle cx="302.09927721058045" cy="290" r="12.592350063071803"/><text transform="translate(302.09927721058045,307.5923500630718) rotate(-90)" alignment-baseline="middle" font-family="Helvetica, Arial, sans-serif" font-size="12" text-anchor="end">Jeor-Mormont</text></g><g><circle cx="335.1850659802115" cy="290" r="12.592350063071803"/><text transform="translate(335.1850659802115,307.5923500630718) rotate(-90)" alignment-baseline="middle" font-family="Helvetica, Arial, sans-serif" font-size="12" text-anchor="end">Samwell-Tarly</text></g><g><circle cx="366.8706045364592" cy="290" r="11.192099849688487"/><text transform="translate(366.8706045364592,306.1920998496885) rotate(-90)" alignment-baseline="middle" font-family="Helvetica, Arial, sans-serif" font-size="12" text-anchor="end">Bronn</text></g><g><circle cx="400.69421345632503" cy="290" r="14.730420426689872"/><text transform="translate(400.69421345632503,309.7304204266899) rotate(-90)" alignment-baseline="middle" font-family="Helvetica, Arial, sans-serif" font-size="12" text-anchor="end">Tyrion-Lannister</text></g><g><circle cx="434.74114480478835" cy="290" r="11.415422278286048"/><text transform="translate(434.74114480478835,306.41542227828603) rotate(-90)" alignment-baseline="middle" font-family="Helvetica, Arial, sans-serif" font-size="12" text-anchor="end">Catelyn-Stark</text></g><g><circle cx="484.05765572656185" cy="290" r="30"/><text transform="translate(484.05765572656185,325) rotate(-90)" alignment-baseline="middle" font-family="Helvetica, Arial, sans-serif" font-size="12" text-anchor="end">Eddard-Stark</text></g><g><circle cx="537.9339874983351" cy="290" r="15.975243128285806"/><text transform="translate(537.9339874983351,310.9752431282858) rotate(-90)" alignment-baseline="middle" font-family="Helvetica, Arial, sans-serif" font-size="12" text-anchor="end">Cersei-Lannister</text></g><g><circle cx="586.2338051910809" cy="290" r="24.423485920972606"/><text transform="translate(586.2338051910809,319.4234859209726) rotate(-90)" alignment-baseline="middle" font-family="Helvetica, Arial, sans-serif" font-size="12" text-anchor="end">Robert-Baratheon</text></g><g><circle cx="631.1507298186128" cy="290" r="12.592350063071803"/><text transform="translate(631.1507298186128,307.5923500630718) rotate(-90)" alignment-baseline="middle" font-family="Helvetica, Arial, sans-serif" font-size="12" text-anchor="end">Petyr-Baelish</text></g><g><circle cx="662.8362683748607" cy="290" r="11.192099849688487"/><text transform="translate(662.8362683748607,306.1920998496885) rotate(-90)" alignment-baseline="middle" font-family="Helvetica, Arial, sans-serif" font-size="12" text-anchor="end">Varys</text></g><g><circle cx="699.5431683379506" cy="290" r="17.61371146991401"/><text transform="translate(699.5431683379506,312.613711469914) rotate(-90)" alignment-baseline="middle" font-family="Helvetica, Arial, sans-serif" font-size="12" text-anchor="end">Daenerys-Targaryen</text></g><g><circle cx="738.8859463034902" cy="290" r="13.827977852138183"/><text transform="translate(738.8859463034902,308.8279778521382) rotate(-90)" alignment-baseline="middle" font-family="Helvetica, Arial, sans-serif" font-size="12" text-anchor="end">Drogo</text></g><g><circle cx="772.807506399558" cy="290" r="12.192493600442095"/><text transform="translate(772.807506399558,307.1924936004421) rotate(-90)" alignment-baseline="middle" font-family="Helvetica, Arial, sans-serif" font-size="12" text-anchor="end">Jorah-Mormont</text></g></g></g></svg>